<svg width="512" height="512" xmlns="http://www.w3.org/2000/svg" class="ionicon">

 <g>
  <title>Layer 1</title>
  <path stroke="null" stroke-width="0" id="svg_1" d="m398.05574,233.41865l-1.47838,-6.27332l-136.35153,0l0,57.70933l81.46814,0c-8.45819,40.16496 -47.70733,61.30716 -79.76734,61.30716c-23.32707,0 -47.91666,-9.81229 -64.19198,-25.5839a91.63367,91.63367 0 0 1 -27.34357,-64.68259c0,-24.3083 10.92435,-48.62315 26.82025,-64.61717s39.9033,-24.94283 63.77332,-24.94283c27.33703,0 46.92889,14.51564 54.2554,21.13566l41.00881,-40.79294c-12.02986,-10.5711 -45.07764,-37.20819 -96.5856,-37.20819c-39.73976,0 -77.84414,15.22213 -105.69795,42.98435c-27.48748,27.33703 -41.7153,66.86746 -41.7153,103.54578s13.46246,74.23321 40.09954,101.78611c28.46217,29.38453 68.77104,44.74402 110.27701,44.74402c37.76422,0 73.55944,-14.79693 99.07138,-41.64334c25.0802,-26.42776 38.05205,-62.99488 38.05205,-101.32821c0,-16.13794 -1.6223,-25.72127 -1.69425,-26.13993z"/>
 </g>
</svg>